<svg width="80" height="80" viewBox="0 0 80 80" fill="none" xmlns="http://www.w3.org/2000/svg">
<rect width="80" height="80" rx="40" fill="#2DA0D5"/>
<g clip-path="url(#clip0_197_1138)">
<path d="M40 56C35.7565 56 31.6869 54.3143 28.6863 51.3137C25.6857 48.3131 24 44.2435 24 40C24 35.7565 25.6857 31.6869 28.6863 28.6863C31.6869 25.6857 35.7565 24 40 24C44.2435 24 48.3131 25.6857 51.3137 28.6863C54.3143 31.6869 56 35.7565 56 40C56 44.2435 54.3143 48.3131 51.3137 51.3137C48.3131 54.3143 44.2435 56 40 56ZM40 52.8C43.3948 52.8 46.6505 51.4514 49.051 49.051C51.4514 46.6505 52.8 43.3948 52.8 40C52.8 36.6052 51.4514 33.3495 49.051 30.949C46.6505 28.5486 43.3948 27.2 40 27.2C36.6052 27.2 33.3495 28.5486 30.949 30.949C28.5486 33.3495 27.2 36.6052 27.2 40C27.2 43.3948 28.5486 46.6505 30.949 49.051C33.3495 51.4514 36.6052 52.8 40 52.8ZM48 38.4V41.6H32V38.4H48Z" fill="white"/>
</g>
<defs>
<clipPath id="clip0_197_1138">
<rect width="32" height="32" fill="white" transform="translate(24 24)"/>
</clipPath>
</defs>
</svg>
