<svg width="80" height="80" viewBox="0 0 80 80" fill="none" xmlns="http://www.w3.org/2000/svg">
<rect width="80" height="80" rx="40" fill="#2DA0D5"/>
<path d="M37.9999 50.6667C37.9999 51.1971 38.2106 51.7058 38.5857 52.0809C38.9608 52.456 39.4695 52.6667 39.9999 52.6667C40.5304 52.6667 41.0391 52.456 41.4141 52.0809C41.7892 51.7058 41.9999 51.1971 41.9999 50.6667V42H50.6666C51.197 42 51.7057 41.7893 52.0808 41.4143C52.4559 41.0392 52.6666 40.5305 52.6666 40C52.6666 39.4696 52.4559 38.9609 52.0808 38.5858C51.7057 38.2108 51.197 38 50.6666 38H41.9999V29.3334C41.9999 28.8029 41.7892 28.2942 41.4141 27.9192C41.0391 27.5441 40.5304 27.3334 39.9999 27.3334C39.4695 27.3334 38.9608 27.5441 38.5857 27.9192C38.2106 28.2942 37.9999 28.8029 37.9999 29.3334V38H29.3333C28.8028 38 28.2941 38.2108 27.919 38.5858C27.544 38.9609 27.3333 39.4696 27.3333 40C27.3333 40.5305 27.544 41.0392 27.919 41.4143C28.2941 41.7893 28.8028 42 29.3333 42H37.9999V50.6667Z" fill="white"/>
</svg>
